<svg width="48" height="48" viewBox="0 0 48 48" fill="none" xmlns="http://www.w3.org/2000/svg">
<path d="M8 4V44L12 42L16 44L20 42L24 44L28 42L32 44L36 42L40 44V4L36 6L32 4L28 6L24 4L20 6L16 4L12 6L8 4Z" stroke="#155DFC" stroke-width="4" stroke-linecap="round" stroke-linejoin="round"/>
<path d="M32 16H20C18.9391 16 17.9217 16.4214 17.1716 17.1716C16.4214 17.9217 16 18.9391 16 20C16 21.0609 16.4214 22.0783 17.1716 22.8284C17.9217 23.5786 18.9391 24 20 24H28C29.0609 24 30.0783 24.4214 30.8284 25.1716C31.5786 25.9217 32 26.9391 32 28C32 29.0609 31.5786 30.0783 30.8284 30.8284C30.0783 31.5786 29.0609 32 28 32H16" stroke="#155DFC" stroke-width="4" stroke-linecap="round" stroke-linejoin="round"/>
<path d="M24 35V13" stroke="#155DFC" stroke-width="4" stroke-linecap="round" stroke-linejoin="round"/>
</svg>
